<?xml version="1.0" encoding="UTF-8"?>
<svg width="195px" height="126px" viewBox="0 0 195 126" version="1.1" xmlns="http://www.w3.org/2000/svg" xmlns:xlink="http://www.w3.org/1999/xlink">
    <!-- Generator: Sketch 49.3 (51167) - http://www.bohemiancoding.com/sketch -->
    <title>Shape</title>
    <desc>Created with Sketch.</desc>
    <defs>
        <linearGradient x1="0%" y1="50%" x2="100%" y2="50%" id="linearGradient-1">
            <stop stop-color="#F093FB" offset="0%"></stop>
            <stop stop-color="#F5576C" offset="100%"></stop>
        </linearGradient>
    </defs>
    <g id="Page-1" stroke="none" stroke-width="1" fill="none" fill-rule="evenodd">
        <g id="Version-finale" transform="translate(-3.000000, -2361.000000)" fill="url(#linearGradient-1)" fill-rule="nonzero">
            <path d="M188.393728,2453.40556 C187.452008,2453.40556 186.510288,2453.33813 185.575544,2453.20326 C177.134941,2451.97263 169.782548,2445.33056 166.378404,2435.84792 C164.948385,2431.83571 161.865123,2429.0457 158.307514,2428.53153 C154.770831,2428.02579 151.213222,2429.86332 149.036802,2433.33607 C143.881756,2441.57965 135.455105,2445.97117 126.972648,2444.70682 C118.497167,2443.48461 111.130823,2436.82569 107.747606,2427.32618 C106.303635,2423.28868 103.283155,2420.55768 99.6836912,2420.03508 C96.2028145,2419.56306 92.5893995,2421.36687 90.4060039,2424.83962 C85.230031,2433.0832 76.7754769,2437.45786 68.3558013,2436.2188 C59.9221742,2435.00502 52.5488543,2428.35452 49.1237833,2418.88031 C47.7007395,2414.84281 44.6174781,2412.06123 41.0598686,2411.54706 C37.5441135,2411.02447 33.9655769,2412.87042 31.7821813,2416.3516 C26.6131841,2424.59518 18.1516543,2428.9277 9.73197869,2427.73078 C1.27044885,2426.50014 -6.09589535,2419.84965 -9.48608784,2410.367 C-11.0207429,2406.09349 -9.39540368,2401.1288 -5.85872138,2399.28285 C-2.32203909,2397.42003 1.79362671,2399.39242 3.31433034,2403.66593 C4.74434981,2407.66972 7.84156271,2410.47658 11.3852207,2410.99075 C14.8870245,2411.47963 18.4795124,2409.65054 20.6698837,2406.16092 C25.8249295,2397.9342 34.2864593,2393.53426 42.7131107,2394.80704 C51.209519,2396.03767 58.5688875,2402.6966 61.9311772,2412.18767 C63.3611967,2416.14931 66.4653853,2418.9646 70.016019,2419.47034 C73.5247985,2419.99294 77.0963593,2418.13013 79.2867306,2414.64894 C84.4417764,2406.43065 92.8963305,2402.02228 101.343909,2403.29506 C109.805439,2404.51727 117.171783,2411.16776 120.555,2420.64197 C121.978044,2424.64576 125.075256,2427.44419 128.632866,2427.95836 C132.106767,2428.4641 135.734133,2426.635 137.910553,2423.15382 C143.07955,2414.91024 151.568983,2410.55244 159.967731,2411.78308 C168.443213,2413.01371 175.802581,2419.66421 179.178822,2429.14685 C180.615818,2433.13378 183.699079,2435.94064 187.228786,2436.45481 C190.821274,2436.90998 194.35098,2435.12302 196.520424,2431.64184 C198.836358,2427.92464 203.217101,2427.19975 206.293387,2429.99818 C209.362697,2432.80504 209.969583,2438.09004 207.646673,2441.80723 C203.070611,2449.14891 195.878659,2453.40556 188.393728,2453.40556 Z" id="Shape" transform="translate(99.497098, 2423.997870) rotate(22.000000) translate(-99.497098, -2423.997870) "></path>
        </g>
    </g>
</svg>