<?xml version="1.0" encoding="UTF-8"?>
<svg width="70px" height="70px" viewBox="0 0 70 70" version="1.1" xmlns="http://www.w3.org/2000/svg" xmlns:xlink="http://www.w3.org/1999/xlink">
    <!-- Generator: Sketch 49.3 (51167) - http://www.bohemiancoding.com/sketch -->
    <title>Cube</title>
    <desc>Created with Sketch.</desc>
    <defs>
        <linearGradient x1="0.25781251%" y1="49.7500002%" x2="101.257813%" y2="49.7500002%" id="linearGradient-1">
            <stop stop-color="#84FAB0" offset="0%"></stop>
            <stop stop-color="#8FD3F4" offset="100%"></stop>
        </linearGradient>
    </defs>
    <g id="Page-1" stroke="none" stroke-width="1" fill="none" fill-rule="evenodd">
        <g id="Version-finale" transform="translate(-826.000000, -2132.000000)" fill="url(#linearGradient-1)">
            <g id="Group-9" transform="translate(772.000000, 2067.000000)">
                <g id="Cube" transform="translate(54.000000, 65.000000)">
                    <g id="002-cube">
                        <path d="M69.9546296,16.0335 C69.9468519,16.0078333 69.9312963,15.9845 69.9222222,15.9588333 C69.895,15.8865 69.8651852,15.8165 69.8224074,15.7511667 C69.8016667,15.7185 69.7731481,15.6905 69.7485185,15.659 C69.707037,15.6065 69.6642593,15.5551667 69.6137037,15.5096667 C69.58,15.4793333 69.5424074,15.4548333 69.5061111,15.428 C69.4711111,15.4023333 69.4412963,15.3731667 69.4037037,15.351 C69.382963,15.3393333 69.3583333,15.3335 69.3375926,15.323 C69.3181481,15.3136667 69.3038889,15.2985 69.2844444,15.2903333 L35.5807407,0.123666667 C35.5690741,0.119 35.5561111,0.121333333 35.5444444,0.1155 C35.3772222,0.0455 35.1957407,0 35,0 C34.8042593,0 34.6227778,0.0455 34.4568519,0.1155 C34.4451852,0.120166667 34.4322222,0.117833333 34.4205556,0.123666667 L0.716851852,15.2903333 C0.697407407,15.2996667 0.683148148,15.3136667 0.663703704,15.323 C0.641666667,15.3335 0.618333333,15.3393333 0.597592593,15.351 C0.558703704,15.3731667 0.530185185,15.4035 0.495185185,15.428 C0.457592593,15.4548333 0.421296296,15.4793333 0.387592593,15.5085 C0.337037037,15.554 0.294259259,15.6053333 0.252777778,15.6578333 C0.228148148,15.6893333 0.19962963,15.7173333 0.178888889,15.75 C0.136111111,15.8153333 0.106296296,15.8865 0.0790740741,15.9588333 C0.07,15.9845 0.0544444444,16.0066667 0.0466666667,16.0335 C0.0168518519,16.1303333 0,16.2306667 0,16.3333333 L0,53.6666667 C0,53.6736667 0.00388888889,53.6806667 0.00388888889,53.6876667 C0.00388888889,53.711 0.012962963,53.7331667 0.0142592593,53.7553333 C0.0246296296,53.8743333 0.0557407407,53.9886667 0.103703704,54.096 C0.112777778,54.1146667 0.108888889,54.1356667 0.119259259,54.1543333 C0.12962963,54.1753333 0.147777778,54.1905 0.160740741,54.2103333 C0.193148148,54.264 0.229444444,54.313 0.270925926,54.362 C0.30462963,54.4028333 0.338333333,54.4425 0.377222222,54.4775 C0.421296296,54.5171667 0.469259259,54.5521667 0.519814815,54.586 C0.566481481,54.6186667 0.613148148,54.6501667 0.663703704,54.6758333 C0.683148148,54.6851667 0.697407407,54.7003333 0.716851852,54.7085 L34.4205556,69.8751667 C34.44,69.8833333 34.4607407,69.8798333 34.4801852,69.888 C34.6461111,69.9556667 34.8211111,70 35,70 C35.1788889,70 35.3538889,69.9556667 35.5198148,69.8891667 C35.5392593,69.881 35.5612963,69.8845 35.5794444,69.8763333 L69.2831481,54.7096667 C69.7225926,54.5125 70,54.1088333 70,53.6666667 L70,16.3333333 C70,16.2306667 69.9844444,16.1303333 69.9546296,16.0335 Z M4.82740741,52.2001667 C4.52796296,51.6156667 3.75796296,51.3601667 3.10722222,51.6296667 L2.59259259,51.8431667 L2.59259259,18.1568333 L33.7037037,31.08 L33.7037037,66.9456667 L4.2687037,53.6993333 C4.85722222,53.4065 5.11388889,52.759 4.82740741,52.2001667 Z M35,3.5 C35.4575926,3.5 35.84,3.27483333 36.0707407,2.95283333 L65.7118519,16.2913333 L36.2962963,28.5098333 L36.2962963,28 C36.2962963,27.356 35.7155556,26.8333333 35,26.8333333 C34.2844444,26.8333333 33.7037037,27.356 33.7037037,28 L33.7037037,28.5098333 L4.28814815,16.2913333 L33.9292593,2.95283333 C34.16,3.27483333 34.5424074,3.5 35,3.5 Z M36.2962963,41.4901667 L38.417037,42.371 C38.5933333,42.4445 38.7774074,42.4783333 38.9588889,42.4783333 C39.4488889,42.4783333 39.9181481,42.2263333 40.1372222,41.7993333 C40.4366667,41.2148333 40.1527778,40.5206667 39.5033333,40.2511667 L37.1492593,39.2735 C36.8705556,39.158 36.5737037,39.1556667 36.2962963,39.2186667 L36.2962963,31.08 L67.4074074,18.1568333 L67.4074074,51.8431667 L65.3968519,51.0078333 C64.7474074,50.7383333 63.9761111,50.9926667 63.6766667,51.5783333 C63.3759259,52.1628333 63.6598148,52.8558333 64.3105556,53.1265 L65.7118519,53.7086667 L36.2962963,66.9456667 L36.2962963,41.4901667 Z" id="Shape" fill-rule="nonzero"></path>
                        <path d="M22.482963,46.0331667 C22.6657407,46.0331667 22.8498148,45.9993333 23.0248148,45.9258333 L25.3788889,44.9481667 C26.0283333,44.6786667 26.3135185,43.9845 26.0127778,43.4 C25.7133333,42.8155 24.942037,42.56 24.2925926,42.8295 L21.9385185,43.8071667 C21.2890741,44.0766667 21.0038889,44.7708333 21.3046296,45.3553333 C21.5237037,45.7823333 21.992963,46.0331667 22.482963,46.0331667 Z" id="Shape" fill-rule="nonzero"></path>
                        <path d="M15.4207407,48.9661667 C15.6022222,48.9661667 15.7875926,48.9323333 15.9625926,48.8588333 L18.3166667,47.8811667 C18.9661111,47.6116667 19.25,46.9175 18.9505556,46.333 C18.6511111,45.7485 17.8811111,45.4918333 17.2303704,45.7625 L14.8762963,46.7401667 C14.2268519,47.0096667 13.942963,47.7038333 14.2424074,48.2883333 C14.4614815,48.7153333 14.9307407,48.9661667 15.4207407,48.9661667 Z" id="Shape" fill-rule="nonzero"></path>
                        <path d="M8.35851852,51.9003333 C8.5412963,51.9003333 8.72537037,51.8653333 8.90037037,51.7918333 L11.2544444,50.8141667 C11.9038889,50.5446667 12.1890741,49.8505 11.8883333,49.266 C11.5888889,48.6815 10.815,48.426 10.1681481,48.6955 L7.81407407,49.6731667 C7.16462963,49.9426667 6.87944444,50.6368333 7.18018519,51.2213333 C7.39925926,51.6495 7.86851852,51.9003333 8.35851852,51.9003333 Z" id="Shape" fill-rule="nonzero"></path>
                        <path d="M53.6264815,46.1183333 L51.2724074,45.1406667 C50.622963,44.8711667 49.8516667,45.1266667 49.5522222,45.7111667 C49.2527778,46.2956667 49.5366667,46.9898333 50.1861111,47.2593333 L52.5401852,48.237 C52.7164815,48.3105 52.9005556,48.3443333 53.082037,48.3443333 C53.572037,48.3443333 54.0412963,48.0935 54.2603704,47.6665 C54.5598148,47.082 54.2772222,46.389 53.6264815,46.1183333 Z" id="Shape" fill-rule="nonzero"></path>
                        <path d="M60.6887037,49.0525 L58.3346296,48.0748333 C57.6864815,47.8041667 56.9138889,48.0596667 56.6144444,48.6453333 C56.3137037,49.2298333 56.5975926,49.9228333 57.2483333,50.1935 L59.6024074,51.1711667 C59.7787037,51.2446667 59.9627778,51.2785 60.1442593,51.2785 C60.6342593,51.2785 61.1035185,51.0276667 61.3212963,50.6006667 C61.6233333,50.0161667 61.3381481,49.3231667 60.6887037,49.0525 Z" id="Shape" fill-rule="nonzero"></path>
                        <path d="M46.5642593,43.1865 L44.2101852,42.2088333 C43.5607407,41.937 42.7894444,42.1936667 42.49,42.7793333 C42.1892593,43.3638333 42.4731481,44.0568333 43.1238889,44.3275 L45.477963,45.3051667 C45.6542593,45.3786667 45.8383333,45.4125 46.0198148,45.4125 C46.5098148,45.4125 46.9790741,45.1616667 47.1968519,44.7346667 C47.4988889,44.149 47.215,43.456 46.5642593,43.1865 Z" id="Shape" fill-rule="nonzero"></path>
                        <path d="M29.5451852,43.099 C29.7266667,43.099 29.912037,43.0651667 30.087037,42.9916667 L32.4411111,42.014 C33.0905556,41.7445 33.3744444,41.0503333 33.075,40.4658333 C32.7742593,39.8813333 32.0055556,39.6246667 31.3548148,39.8953333 L29.0007407,40.873 C28.3512963,41.1425 28.0674074,41.8366667 28.3668519,42.4211667 C28.5859259,42.8481667 29.0551852,43.099 29.5451852,43.099 Z" id="Shape" fill-rule="nonzero"></path>
                        <path d="M35,10.5 C35.7155556,10.5 36.2962963,9.97733333 36.2962963,9.33333333 L36.2962963,7 C36.2962963,6.356 35.7155556,5.83333333 35,5.83333333 C34.2844444,5.83333333 33.7037037,6.356 33.7037037,7 L33.7037037,9.33333333 C33.7037037,9.97733333 34.2844444,10.5 35,10.5 Z" id="Shape" fill-rule="nonzero"></path>
                        <path d="M35,17.5 C35.7155556,17.5 36.2962963,16.9773333 36.2962963,16.3333333 L36.2962963,14 C36.2962963,13.356 35.7155556,12.8333333 35,12.8333333 C34.2844444,12.8333333 33.7037037,13.356 33.7037037,14 L33.7037037,16.3333333 C33.7037037,16.9773333 34.2844444,17.5 35,17.5 Z" id="Shape" fill-rule="nonzero"></path>
                        <path d="M35,24.5 C35.7155556,24.5 36.2962963,23.9773333 36.2962963,23.3333333 L36.2962963,21 C36.2962963,20.356 35.7155556,19.8333333 35,19.8333333 C34.2844444,19.8333333 33.7037037,20.356 33.7037037,21 L33.7037037,23.3333333 C33.7037037,23.9773333 34.2844444,24.5 35,24.5 Z" id="Shape" fill-rule="nonzero"></path>
                    </g>
                </g>
            </g>
        </g>
    </g>
</svg>