<?xml version="1.0" encoding="UTF-8"?>
<svg width="60px" height="80px" viewBox="0 0 60 80" version="1.1" xmlns="http://www.w3.org/2000/svg" xmlns:xlink="http://www.w3.org/1999/xlink">
    <!-- Generator: Sketch 49.3 (51167) - http://www.bohemiancoding.com/sketch -->
    <title>Icon</title>
    <desc>Created with Sketch.</desc>
    <defs>
        <linearGradient x1="0.25781251%" y1="49.7500002%" x2="101.257813%" y2="49.7500002%" id="linearGradient-1">
            <stop stop-color="#F6D365" offset="0%"></stop>
            <stop stop-color="#FDA085" offset="100%"></stop>
        </linearGradient>
    </defs>
    <g id="Page-1" stroke="none" stroke-width="1" fill="none" fill-rule="evenodd">
        <g id="Version-finale" transform="translate(-201.000000, -1193.000000)" fill="url(#linearGradient-1)">
            <g id="Group-6" transform="translate(147.000000, 1128.000000)">
                <g id="Icon" transform="translate(54.000000, 65.000000)">
                    <g id="001-light-bulb">
                        <path d="M22.7841472,69.6119398 C22.0986622,69.6119398 21.5398997,69.055786 21.5398997,68.370301 C21.5398997,67.6848161 22.0960535,67.1286622 22.7841472,67.1286622 L37.2182609,67.1286622 C37.9037458,67.1286622 38.4598997,67.6848161 38.4598997,68.370301 C38.4598997,69.055786 37.9037458,69.6119398 37.2182609,69.6119398 L22.7841472,69.6119398 Z" id="Shape" fill-rule="nonzero"></path>
                        <path d="M24.387893,74.5396656 C23.702408,74.5396656 23.1462542,73.9835117 23.1462542,73.2980268 C23.1462542,72.6125418 23.7050167,72.056388 24.387893,72.056388 L35.6144147,72.056388 C36.2998997,72.056388 36.8560535,72.6125418 36.8560535,73.2980268 C36.8560535,73.9835117 36.2998997,74.5396656 35.6144147,74.5396656 L24.387893,74.5396656 Z" id="Shape" fill-rule="nonzero"></path>
                        <path d="M28.8319064,57.3740468 C28.8319064,58.0570234 28.2783612,58.6104682 27.5954849,58.6104682 C26.9126087,58.6104682 26.3590635,58.0568227 26.3590635,57.3740468 C26.3538462,52.1462207 26.2038462,48.240301 25.4821405,44.6239465 C24.7682609,41.0491304 23.490301,37.7354849 21.2218395,33.6483612 C20.8907358,33.0508696 21.1054515,32.2980602 21.7004348,31.9669565 C22.2980268,31.6358528 23.0507358,31.8505686 23.3844482,32.4455518 C25.7926756,36.7861204 27.1559197,40.319699 27.9163545,44.1403344 C28.6689632,47.911806 28.8267893,51.9626087 28.8319064,57.3740468 Z" id="Shape" fill-rule="nonzero"></path>
                        <path d="M33.6433445,57.3740468 C33.6433445,58.0570234 33.089699,58.6104682 32.4069231,58.6104682 C31.7241472,58.6104682 31.1705017,58.0568227 31.1705017,57.3740468 C31.1758194,51.962408 31.3334448,47.9143144 32.0861538,44.1403344 C32.846689,40.319699 34.2099331,36.7863211 36.6181605,32.4455518 C36.9493645,31.8480602 37.7045819,31.6333445 38.2996656,31.9669565 C38.8972575,32.2980602 39.1091639,33.0533779 38.7782609,33.6483612 C36.509699,37.7353846 35.2318395,41.0517391 34.5178595,44.6239465 C33.7985619,48.240301 33.6460535,52.1463211 33.6433445,57.3740468 Z" id="Shape" fill-rule="nonzero"></path>
                        <path d="M21.9253846,34.2252843 C21.2735117,34.0182943 20.9165217,33.3199666 21.1235117,32.6679933 C21.33301,32.0161204 22.0288294,31.6591304 22.6808027,31.8661204 C23.5447826,32.1455518 24.2923746,32.520602 24.9829766,32.8672575 L25.0502007,32.9034783 C26.128796,33.446689 27.0264883,33.870903 27.6938127,33.3276923 L29.22,32.0834448 C29.7502676,31.6541137 30.5316722,31.7342809 30.960903,32.2645485 C31.3903344,32.7948161 31.3100669,33.5760201 30.7797993,34.0054515 L29.253612,35.249699 C27.3523746,36.7965552 25.7976923,36.0438462 23.9249498,35.1048161 L23.8680602,35.0789298 C23.2627425,34.773612 22.6056522,34.4451171 21.9253846,34.2252843 Z" id="Shape" fill-rule="nonzero"></path>
                        <path d="M31.2429431,6.05297659 C31.2429431,6.73846154 30.6867893,7.29461538 30.001204,7.29461538 C29.3157191,7.29461538 28.7595652,6.73846154 28.7595652,6.05297659 L28.7595652,1.2416388 C28.7595652,0.556153846 29.3157191,0 30.001204,0 C30.6868896,0 31.2429431,0.556153846 31.2429431,1.2416388 L31.2429431,6.05297659 Z" id="Shape" fill-rule="nonzero"></path>
                        <path d="M37.321806,31.8661204 C37.9736789,31.6566221 38.672107,32.0162207 38.879097,32.6679933 C39.0885953,33.3198662 38.729097,34.0182943 38.0772241,34.2252843 C37.3970569,34.4451171 36.7399666,34.7762207 36.1319398,35.0815385 L36.0751505,35.1074247 C34.2048161,36.0463545 32.6477258,36.8017726 30.7464883,35.2522074 L29.220301,34.0080602 C28.6900334,33.5786288 28.6098662,32.7974247 29.0391973,32.2671572 C29.4686288,31.7368896 30.2498328,31.6567224 30.7802007,32.0860535 L32.306388,33.330301 C32.9738127,33.8735117 33.868796,33.446689 34.9501003,32.906087 L35.0175251,32.8698662 C35.7102341,32.520602 36.4577258,32.1455518 37.321806,31.8661204 Z" id="Shape" fill-rule="nonzero"></path>
                        <path d="M45.6226756,19.2997324 C49.6191973,23.2962542 52.0947492,28.8215719 52.0947492,34.9211037 C52.0947492,37.3061538 51.7119732,39.6108361 51.0083278,41.7709365 C50.281505,44.0032776 49.2028094,46.0856187 47.8447826,47.94301 C45.5658863,51.06 43.7164214,53.1061204 42.2807358,54.6968227 C39.6965217,57.5551505 38.5635452,58.8073244 38.5635452,62.9874582 C38.5635452,63.6729431 38.0073913,64.229097 37.3219064,64.229097 L37.2907023,64.229097 L30.0555853,64.229097 L22.7868562,64.229097 C22.1013712,64.229097 21.5426087,63.6729431 21.5426087,62.9874582 C21.5426087,58.8486622 20.3863545,57.5837458 17.820301,54.7718729 L17.8176923,54.7693645 L17.8150836,54.7718729 C16.3639465,53.1836789 14.4963211,51.1374582 12.1604348,47.9429097 C10.802408,46.0855184 9.72371237,44.0006689 8.99688963,41.7683278 C8.29324415,39.6109365 7.91046823,37.3035452 7.91046823,34.921204 C7.91046823,31.9361538 8.5080602,29.0803344 9.58926421,26.4728428 L9.61254181,26.4236789 C10.7351839,23.7334114 12.3700334,21.3122408 14.3850502,19.2998328 C16.4131104,17.2718729 18.8472241,15.631806 21.5581605,14.5091639 L21.5581605,14.5065552 C24.1655518,13.4253512 27.0213712,12.8277592 30.0065217,12.8277592 C32.9866555,12.8277592 35.8396656,13.4253512 38.4497659,14.5065552 C41.1553846,15.6291973 43.5946154,17.2717726 45.6226756,19.2997324 Z M49.6088629,34.9211037 C49.6088629,29.5070569 47.4125418,24.6052174 43.8663211,21.056087 C42.0531773,19.2427425 39.8930769,17.7838796 37.5029097,16.7956856 C35.2007358,15.841204 32.6656856,15.3135452 30.001204,15.3135452 C27.3394314,15.3135452 24.8044816,15.841204 22.5048161,16.7956856 L22.5048161,16.7931773 L22.4995987,16.7956856 C20.1094314,17.7838796 17.9521405,19.2427425 16.138796,21.056087 C14.343612,22.8512709 12.8924749,24.9931104 11.9016722,27.3573913 L11.875786,27.4246154 C10.923913,29.7241806 10.3936455,32.2592308 10.3936455,34.9210033 C10.3936455,37.047291 10.7324749,39.0960201 11.3533445,41.0023746 C12.0026087,42.9862876 12.9570903,44.8334448 14.1573913,46.4785284 C16.4001672,49.5463545 18.2263545,51.5460201 19.6464883,53.1031104 L19.6438796,53.1056187 C22.4064883,56.1243813 23.7800669,57.6350167 23.9947826,61.7479264 L30.0503679,61.7479264 L36.1059532,61.7479264 C36.3180602,57.6066221 37.6657525,56.1114381 40.4413043,53.0435117 C41.8278261,51.5095987 43.6100669,49.5359197 45.8425084,46.4835452 C47.042709,44.8409699 47.997291,42.9940134 48.6439465,41.01 C49.2700334,39.0961204 49.6088629,37.05 49.6088629,34.9211037 Z" id="Shape" fill-rule="nonzero"></path>
                        <path d="M25.9917391,79.4648829 C25.3062542,79.4648829 24.7501003,78.9087291 24.7501003,78.2232441 C24.7501003,77.5377592 25.3062542,76.9816054 25.9917391,76.9816054 L34.0107692,76.9816054 C34.6962542,76.9816054 35.252408,77.5377592 35.252408,78.2232441 C35.252408,78.9087291 34.6962542,79.4648829 34.0107692,79.4648829 L25.9917391,79.4648829 Z" id="Shape" fill-rule="nonzero"></path>
                        <path d="M45.2346823,10.4633779 C44.8956522,11.0531438 44.1377258,11.2575251 43.5453512,10.9186957 C42.9555853,10.5798662 42.7514047,9.8219398 43.0902341,9.22956522 L45.4959532,5.06237458 C45.8347826,4.4726087 46.5928094,4.26822742 47.1850836,4.60705686 C47.7774582,4.94588629 47.9792308,5.70381271 47.6404013,6.29618729 L45.2346823,10.4633779 Z" id="Shape" fill-rule="nonzero"></path>
                        <path d="M16.9096656,9.23207358 C17.248495,9.82183946 17.0468227,10.5797659 16.4543478,10.9186957 C15.8645819,11.2575251 15.1066555,11.0531438 14.7678261,10.4633779 L12.362107,6.29608696 C12.0232776,5.70632107 12.2275585,4.94839465 12.8174247,4.60956522 C13.4097993,4.27073579 14.1677258,4.47501672 14.5065552,5.06478261 L16.9096656,9.23207358 Z" id="Shape" fill-rule="nonzero"></path>
                        <path d="M6.08929766,19.1419064 C6.67906355,19.4807358 6.88344482,20.2386622 6.54461538,20.8310368 C6.20578595,21.4208027 5.4477592,21.6251839 4.85799331,21.2863545 L0.690702341,18.8806355 C0.0983277592,18.541806 -0.105953177,17.7838796 0.232876254,17.1941137 C0.571705686,16.6017391 1.32963211,16.3999666 1.92200669,16.738796 L6.08929766,19.1419064 Z" id="Shape" fill-rule="nonzero"></path>
                        <path d="M55.1444147,21.2863545 C54.5520401,21.6251839 53.7941137,21.420903 53.4552843,20.8310368 C53.1163545,20.2386622 53.3207358,19.4807358 53.9105017,19.1419064 L58.0777926,16.7361873 C58.6699666,16.3973579 59.427893,16.6016388 59.7669231,17.191505 C60.1057525,17.7812709 59.9014716,18.541806 59.3116054,18.8806355 L55.1444147,21.2863545 Z" id="Shape" fill-rule="nonzero"></path>
                        <path d="M17.1011037,39.8281605 C17.3649833,40.4567559 17.0701003,41.1835786 16.441505,41.4474582 C15.8129097,41.7113378 15.086087,41.4163545 14.8222074,40.7878595 C14.4005017,39.7895318 14.0720067,38.7367224 13.8546823,37.650301 C13.6399666,36.5768227 13.5235786,35.4800669 13.5235786,34.3780936 C13.5235786,33.6926087 14.0823411,33.1364548 14.7652174,33.1364548 C15.4507023,33.1364548 16.0068562,33.6952174 16.0068562,34.3780936 C16.0068562,35.3481271 16.1025753,36.2819398 16.2810702,37.1665886 C16.4647826,38.0872575 16.7441137,38.9822408 17.1011037,39.8281605 Z M17.1011037,28.9250167 C16.8373244,29.553612 16.1104013,29.848495 15.481806,29.5846154 C14.8532107,29.3207358 14.5583278,28.5938127 14.8222074,27.9653177 C15.2385953,26.9797324 15.748194,26.0459197 16.3302341,25.1793311 L16.3328428,25.1767224 L16.3302341,25.174214 C16.9278261,24.2895652 17.6054849,23.4669231 18.3478595,22.7245485 C19.0825084,21.9898997 19.9051505,21.3121405 20.8000334,20.7095318 L20.8000334,20.7069231 C21.6588963,20.1274916 22.5978261,19.617893 23.5911371,19.1988963 C24.5870569,18.7771906 25.6372575,18.4486957 26.7262876,18.2313712 C27.7997659,18.0140468 28.9017391,17.9002676 30.0011037,17.9002676 C30.6867893,17.9002676 31.2428428,18.4564214 31.2428428,19.1419064 C31.2428428,19.8273913 30.686689,20.3835452 30.0011037,20.3835452 C29.0284615,20.3835452 28.0921405,20.4792642 27.21,20.6551505 C26.2865217,20.8388629 25.3940468,21.1208027 24.5508361,21.4776923 C23.730903,21.8243478 22.9392642,22.2562876 22.1865552,22.7632776 L22.1839465,22.7632776 C21.4519064,23.2547157 20.7534783,23.8341472 20.1068227,24.480903 C19.467893,25.1198328 18.8884615,25.8208696 18.3891973,26.5632441 L18.3865886,26.5606355 C17.8823077,27.3083278 17.4502676,28.0998662 17.1011037,28.9250167 Z" id="Shape" fill-rule="nonzero"></path>
                    </g>
                </g>
            </g>
        </g>
    </g>
</svg>