<?xml version="1.0" encoding="UTF-8"?>
<svg width="81px" height="55px" viewBox="0 0 81 55" version="1.1" xmlns="http://www.w3.org/2000/svg" xmlns:xlink="http://www.w3.org/1999/xlink">
    <!-- Generator: Sketch 49.3 (51167) - http://www.bohemiancoding.com/sketch -->
    <title>Laptop</title>
    <desc>Created with Sketch.</desc>
    <defs>
        <linearGradient x1="0%" y1="50%" x2="100%" y2="50%" id="linearGradient-1">
            <stop stop-color="#F093FB" offset="0%"></stop>
            <stop stop-color="#F5576C" offset="100%"></stop>
        </linearGradient>
    </defs>
    <g id="Page-1" stroke="none" stroke-width="1" fill="none" fill-rule="evenodd">
        <g id="Version-finale" transform="translate(-201.000000, -1923.000000)" fill="url(#linearGradient-1)">
            <g id="Group-8" transform="translate(147.000000, 1858.000000)">
                <g id="Laptop" transform="translate(54.000000, 65.000000)">
                    <g id="004-laptop">
                        <path d="M71.365,3.92672414 L9.1887931,3.92672414 C8.09068966,3.92672414 7.19724138,4.82 7.19724138,5.91810345 L7.19724138,42.6736207 C7.19724138,43.7717241 8.09068966,44.665 9.1887931,44.665 L71.365,44.665 C72.462931,44.665 73.3563793,43.7717241 73.3563793,42.6736207 L73.3563793,5.91827586 C73.3563793,4.82017241 72.462931,3.92672414 71.365,3.92672414 Z M71.6322414,42.6736207 C71.6322414,42.8210345 71.5124138,42.9408621 71.365,42.9408621 L9.1887931,42.9408621 C9.04137931,42.9408621 8.92137931,42.8208621 8.92137931,42.6736207 L8.92137931,5.91827586 C8.92137931,5.77086207 9.0412069,5.65103448 9.1887931,5.65103448 L71.365,5.65103448 C71.5122414,5.65103448 71.6322414,5.77103448 71.6322414,5.91827586 L71.6322414,42.6736207 Z" id="Shape" fill-rule="nonzero"></path>
                        <path d="M79.2605172,45.9582759 L77.2356897,45.9582759 L77.2356897,4.97293103 C77.2356897,2.25706897 75.0262069,0.0474137931 72.3101724,0.0474137931 L8.24362069,0.0474137931 C5.52758621,0.0474137931 3.31810345,2.25689655 3.31810345,4.97293103 L3.31810345,45.9581034 L1.29310345,45.9581034 C0.578793103,45.9581034 0,46.537069 0,47.2512069 L0,50.8037931 C0,53.1113793 1.87741379,54.9886207 4.18482759,54.9886207 L76.3686207,54.9886207 C78.6762069,54.9886207 80.5534483,53.1112069 80.5534483,50.8037931 L80.5534483,47.2512069 C80.5536207,46.5372414 79.9748276,45.9582759 79.2605172,45.9582759 Z M5.90413793,4.97293103 C5.90413793,3.68310345 6.95362069,2.63362069 8.24344828,2.63362069 L72.31,2.63362069 C73.5998276,2.63362069 74.6493103,3.68293103 74.6493103,4.97293103 L74.6493103,45.9581034 L5.90413793,45.9581034 L5.90413793,4.97293103 Z M36.4836207,48.5444828 L44.0698276,48.5444828 L44.0698276,49.2206897 C44.0698276,49.5232759 43.8236207,49.7696552 43.5208621,49.7696552 L37.0324138,49.7696552 C36.7296552,49.7696552 36.4834483,49.5234483 36.4834483,49.2206897 L36.4834483,48.5444828 L36.4836207,48.5444828 Z M77.9675862,50.8039655 C77.9675862,51.6855172 77.2505172,52.4025862 76.3689655,52.4025862 L4.185,52.4025862 C3.30344828,52.4025862 2.58637931,51.6853448 2.58637931,50.8039655 L2.58637931,48.5444828 L4.6112069,48.5444828 L34.7596552,48.5444828 L34.7596552,49.2206897 C34.7596552,50.4741379 35.7793103,51.4937931 37.0327586,51.4937931 L43.5212069,51.4937931 C44.7746552,51.4937931 45.7943103,50.4741379 45.7943103,49.2206897 L45.7943103,48.5444828 L75.9427586,48.5444828 L77.9675862,48.5444828 L77.9675862,50.8039655 Z" id="Shape" fill-rule="nonzero"></path>
                    </g>
                </g>
            </g>
        </g>
    </g>
</svg>