<?xml version="1.0" encoding="UTF-8"?>
<svg width="83px" height="65px" viewBox="0 0 83 65" version="1.1" xmlns="http://www.w3.org/2000/svg" xmlns:xlink="http://www.w3.org/1999/xlink">
    <!-- Generator: Sketch 49.3 (51167) - http://www.bohemiancoding.com/sketch -->
    <title>Megaphone</title>
    <desc>Created with Sketch.</desc>
    <defs>
        <linearGradient x1="0.25781251%" y1="49.7500002%" x2="101.257813%" y2="49.7500002%" id="linearGradient-1">
            <stop stop-color="#0996DC" offset="0%"></stop>
            <stop stop-color="#3FE6EF" offset="100%"></stop>
        </linearGradient>
    </defs>
    <g id="Page-1" stroke="none" stroke-width="1" fill="none" fill-rule="evenodd">
        <g id="Version-finale" transform="translate(-826.000000, -1402.000000)" fill="url(#linearGradient-1)">
            <g id="Group-7" transform="translate(772.000000, 1337.000000)">
                <g id="Megaphone" transform="translate(54.000000, 65.000000)">
                    <g id="003-megaphone">
                        <path d="M57.9502488,0.0755099502 C54.9064055,0.0755099502 52.4312313,2.55084577 52.4312313,5.59452736 L52.4312313,6.59216418 L20.1833085,19.4902985 C19.660398,19.7014677 19.3168035,20.2077239 19.3168035,20.7720274 L19.3168035,40.0888308 C19.3168035,40.6531343 19.660398,41.1595522 20.1833085,41.3692662 L52.4312313,54.2674005 L52.4312313,55.2663308 C52.4312313,58.3101741 54.9065672,60.7853483 57.9502488,60.7853483 C60.9939303,60.7853483 63.4692662,58.3100124 63.4692662,55.2663308 L63.4692662,5.59452736 C63.4692662,2.55068408 60.994092,0.0755099502 57.9502488,0.0755099502 Z M60.7098383,55.2661692 C60.7098383,56.78801 59.4722512,58.0257587 57.9502488,58.0257587 C56.4282463,58.0257587 55.1906592,56.7881716 55.1906592,55.2661692 L55.1906592,53.3344403 C55.1906592,52.7686816 54.8470647,52.2624254 54.3228607,52.0527114 L22.0762313,39.1545771 L22.0762313,21.7061194 L54.3228607,8.80798507 C54.8472264,8.59681592 55.1906592,8.0905597 55.1906592,7.52625622 L55.1906592,5.59452736 C55.1906592,4.07268657 56.4282463,2.83493781 57.9502488,2.83493781 C59.4722512,2.83493781 60.7098383,4.07252488 60.7098383,5.59452736 L60.7098383,55.2661692 Z" id="Shape" fill-rule="nonzero"></path>
                        <path d="M20.6965174,19.3921517 L11.0381965,19.3921517 C4.95196517,19.3921517 0,24.3441169 0,30.4303483 C0,36.5165796 4.95196517,41.4685448 11.0381965,41.4685448 L20.6965174,41.4685448 C21.4580846,41.4685448 22.0762313,40.8518532 22.0762313,40.0888308 L22.0762313,20.7720274 C22.0762313,20.0102985 21.4580846,19.3921517 20.6965174,19.3921517 Z M19.3168035,38.7089552 L11.0381965,38.7089552 C6.47251244,38.7089552 2.75958955,34.9960323 2.75958955,30.4303483 C2.75958955,25.8646642 6.47251244,22.1517413 11.0381965,22.1517413 L19.3168035,22.1517413 L19.3168035,38.7089552 Z" id="Shape" fill-rule="nonzero"></path>
                        <path d="M70.8042413,24.9816667 L62.5256343,22.2220771 C62.1034577,22.082699 61.6439303,22.1530348 61.2823881,22.4125498 C60.922301,22.671903 60.7098383,23.0885821 60.7098383,23.5316169 L60.7098383,37.3292413 C60.7098383,37.7721144 60.922301,38.1887935 61.2823881,38.449602 C61.5210448,38.6206716 61.804005,38.7089552 62.0895522,38.7089552 C62.2358831,38.7089552 62.3835075,38.68551 62.5256343,38.6371642 L70.8042413,35.8775746 C71.3685448,35.691306 71.7480348,35.1641915 71.7480348,34.56949 L71.7480348,26.2908831 C71.7478731,25.6963433 71.3685448,25.1706841 70.8042413,24.9816667 Z M68.9884453,33.5747637 L63.4694279,35.414005 L63.4694279,25.4452363 L68.9884453,27.2844776 L68.9884453,33.5747637 Z" id="Shape" fill-rule="nonzero"></path>
                        <path d="M27.4670274,57.3261194 L26.0818159,55.9394527 L22.035,39.7547761 C21.8818781,39.1408333 21.3298632,38.7089552 20.6966791,38.7089552 L9.6583209,38.7089552 C9.23614428,38.7089552 8.83870647,38.9021766 8.57660448,39.2305721 C8.31450249,39.5617164 8.21781095,39.9935945 8.31450249,40.4047761 L13.8335199,63.8608831 C13.983893,64.4942289 14.5481965,64.9246517 15.1760448,64.9246517 C15.2630348,64.9246517 15.3498632,64.9164055 15.4381468,64.8984577 L25.8001493,62.8978483 C25.813893,62.8950995 25.8277985,62.8923507 25.8415423,62.889602 C26.448694,62.7529726 27.003296,62.4494776 27.4448756,62.0148507 C28.0740174,61.3925 28.4231095,60.5646393 28.428607,59.678893 C28.4342662,58.7942786 28.0948756,57.9609204 27.4670274,57.3261194 Z M25.5063557,60.0498134 C25.4360199,60.1201493 25.3477363,60.168495 25.2510448,60.1932338 L16.2176617,61.938694 L11.4008706,41.4683831 L19.6188433,41.4683831 L23.4987935,56.9797761 C23.5594279,57.2226368 23.6850622,57.444801 23.8616294,57.6213682 L25.5118532,59.271592 C25.6512313,59.4109701 25.6704726,59.5750871 25.6704726,59.6620771 C25.6691791,59.7463184 25.6471891,59.9104353 25.5063557,60.0498134 Z" id="Shape" fill-rule="nonzero"></path>
                        <rect id="Rectangle-path" fill-rule="nonzero" x="74.5074627" y="29.0506343" width="8.27860697" height="2.75958955"></rect>
                        <rect id="Rectangle-path" fill-rule="nonzero" transform="translate(77.953841, 15.946037) rotate(-30.971618) translate(-77.953841, -15.946037) " x="73.9313031" y="14.5663588" width="8.04507657" height="2.759356"></rect>
                        <rect id="Rectangle-path" fill-rule="nonzero" transform="translate(77.966587, 44.917248) rotate(-59.036243) translate(-77.966587, -44.917248) " x="76.5867808" y="40.894491" width="2.75961232" height="8.04551414"></rect>
                        <rect id="Rectangle-path" fill-rule="nonzero" x="52.4312313" y="6.97424129" width="2.75958955" height="46.9120522"></rect>
                        <rect id="Rectangle-path" fill-rule="nonzero" x="13.7976244" y="24.9113308" width="2.75958955" height="5.51901741"></rect>
                        <rect id="Rectangle-path" fill-rule="nonzero" x="8.27860697" y="24.9113308" width="2.75958955" height="5.51901741"></rect>
                    </g>
                </g>
            </g>
        </g>
    </g>
</svg>